<mxfile host="app.diagrams.net" agent="Mozilla/5.0 (Windows NT 10.0; Win64; x64) AppleWebKit/537.36 (KHTML, like Gecko) Chrome/131.0.0.0 Safari/537.36" version="25.0.3">
  <diagram name="Page-1" id="58cdce13-f638-feb5-8d6f-7d28b1aa9fa0">
    <mxGraphModel dx="1116" dy="424" grid="1" gridSize="10" guides="1" tooltips="1" connect="1" arrows="1" fold="1" page="1" pageScale="1" pageWidth="1100" pageHeight="850" background="none" math="0" shadow="0">
      <root>
        <mxCell id="0" />
        <mxCell id="1" parent="0" />
        <mxCell id="_xPKb72QUxHpG5c-WjAv-1" value="" style="ellipse;html=1;shape=startState;fillColor=#000000;strokeColor=#23445D;fontColor=#FFFFFF;" vertex="1" parent="1">
          <mxGeometry x="85" y="40" width="30" height="30" as="geometry" />
        </mxCell>
        <mxCell id="_xPKb72QUxHpG5c-WjAv-2" value="" style="edgeStyle=orthogonalEdgeStyle;html=1;verticalAlign=bottom;endArrow=open;endSize=8;strokeColor=#23445D;rounded=0;entryX=0;entryY=0.5;entryDx=0;entryDy=0;fillColor=#007FFF;" edge="1" source="_xPKb72QUxHpG5c-WjAv-1" parent="1" target="_xPKb72QUxHpG5c-WjAv-3">
          <mxGeometry relative="1" as="geometry">
            <mxPoint x="135" y="150" as="targetPoint" />
          </mxGeometry>
        </mxCell>
        <mxCell id="_xPKb72QUxHpG5c-WjAv-3" value="Loan Application&lt;br/&gt;Submitted" style="rounded=1;whiteSpace=wrap;html=1;strokeColor=#FFFFFF;fontColor=#FFFFFF;fillColor=#182E3E;" vertex="1" parent="1">
          <mxGeometry x="240" y="25" width="120" height="60" as="geometry" />
        </mxCell>
        <mxCell id="_xPKb72QUxHpG5c-WjAv-4" value="Application&lt;br/&gt;Approved&amp;nbsp;" style="rounded=1;whiteSpace=wrap;html=1;strokeColor=#FFFFFF;fontColor=#FFFFFF;fillColor=#182E3E;" vertex="1" parent="1">
          <mxGeometry x="500" y="120" width="120" height="60" as="geometry" />
        </mxCell>
        <mxCell id="_xPKb72QUxHpG5c-WjAv-5" value="Application Under&lt;br/&gt;Review" style="rounded=1;whiteSpace=wrap;html=1;strokeColor=#FFFFFF;fontColor=#FFFFFF;fillColor=#182E3E;" vertex="1" parent="1">
          <mxGeometry x="500" y="25" width="120" height="60" as="geometry" />
        </mxCell>
        <mxCell id="_xPKb72QUxHpG5c-WjAv-6" value="" style="rhombus;whiteSpace=wrap;html=1;strokeColor=#FFFFFF;fontColor=#FFFFFF;fillColor=#182E3E;" vertex="1" parent="1">
          <mxGeometry x="760" y="80" width="80" height="80" as="geometry" />
        </mxCell>
        <mxCell id="_xPKb72QUxHpG5c-WjAv-8" value="Loan Disbursed" style="rounded=1;whiteSpace=wrap;html=1;strokeColor=#FFFFFF;fontColor=#FFFFFF;fillColor=#182E3E;" vertex="1" parent="1">
          <mxGeometry x="240" y="120" width="120" height="60" as="geometry" />
        </mxCell>
        <mxCell id="_xPKb72QUxHpG5c-WjAv-9" value="Active Loan&amp;nbsp;" style="rounded=1;whiteSpace=wrap;html=1;strokeColor=#FFFFFF;fontColor=#FFFFFF;fillColor=#182E3E;" vertex="1" parent="1">
          <mxGeometry x="40" y="120" width="120" height="60" as="geometry" />
        </mxCell>
        <mxCell id="_xPKb72QUxHpG5c-WjAv-10" value="Loan Paid Off" style="rounded=1;whiteSpace=wrap;html=1;strokeColor=#FFFFFF;fontColor=#FFFFFF;fillColor=#182E3E;" vertex="1" parent="1">
          <mxGeometry x="500" y="240" width="120" height="60" as="geometry" />
        </mxCell>
        <mxCell id="_xPKb72QUxHpG5c-WjAv-12" value="Application&lt;br/&gt;Rejected" style="rounded=1;whiteSpace=wrap;html=1;strokeColor=#FFFFFF;fontColor=#FFFFFF;fillColor=#182E3E;" vertex="1" parent="1">
          <mxGeometry x="740" y="240" width="120" height="60" as="geometry" />
        </mxCell>
        <mxCell id="_xPKb72QUxHpG5c-WjAv-13" value="Loan Delinquent" style="rounded=1;whiteSpace=wrap;html=1;strokeColor=#FFFFFF;fontColor=#FFFFFF;fillColor=#182E3E;" vertex="1" parent="1">
          <mxGeometry x="40" y="360" width="120" height="60" as="geometry" />
        </mxCell>
        <mxCell id="_xPKb72QUxHpG5c-WjAv-14" value="" style="rhombus;whiteSpace=wrap;html=1;strokeColor=#FFFFFF;fontColor=#FFFFFF;fillColor=#182E3E;" vertex="1" parent="1">
          <mxGeometry x="260" y="240" width="80" height="80" as="geometry" />
        </mxCell>
        <mxCell id="_xPKb72QUxHpG5c-WjAv-15" value="" style="ellipse;html=1;shape=endState;fillColor=#000000;strokeColor=#23445D;fontColor=#FFFFFF;" vertex="1" parent="1">
          <mxGeometry x="785" y="375" width="30" height="30" as="geometry" />
        </mxCell>
        <mxCell id="_xPKb72QUxHpG5c-WjAv-16" value="" style="endArrow=classic;html=1;rounded=0;strokeColor=#23445D;exitX=1;exitY=0.5;exitDx=0;exitDy=0;entryX=0;entryY=0.5;entryDx=0;entryDy=0;" edge="1" parent="1" source="_xPKb72QUxHpG5c-WjAv-3" target="_xPKb72QUxHpG5c-WjAv-5">
          <mxGeometry width="50" height="50" relative="1" as="geometry">
            <mxPoint x="510" y="250" as="sourcePoint" />
            <mxPoint x="560" y="200" as="targetPoint" />
          </mxGeometry>
        </mxCell>
        <mxCell id="_xPKb72QUxHpG5c-WjAv-20" value="" style="endArrow=classic;html=1;rounded=0;strokeColor=#23445D;exitX=1;exitY=0.5;exitDx=0;exitDy=0;entryX=0.5;entryY=0;entryDx=0;entryDy=0;edgeStyle=orthogonalEdgeStyle;curved=1;" edge="1" parent="1" source="_xPKb72QUxHpG5c-WjAv-5" target="_xPKb72QUxHpG5c-WjAv-6">
          <mxGeometry width="50" height="50" relative="1" as="geometry">
            <mxPoint x="645" y="54.5" as="sourcePoint" />
            <mxPoint x="785" y="54.5" as="targetPoint" />
          </mxGeometry>
        </mxCell>
        <mxCell id="_xPKb72QUxHpG5c-WjAv-21" value="" style="endArrow=classic;html=1;rounded=0;strokeColor=#23445D;exitX=0;exitY=0.5;exitDx=0;exitDy=0;entryX=1;entryY=0.5;entryDx=0;entryDy=0;edgeStyle=orthogonalEdgeStyle;curved=1;" edge="1" parent="1" source="_xPKb72QUxHpG5c-WjAv-6" target="_xPKb72QUxHpG5c-WjAv-4">
          <mxGeometry width="50" height="50" relative="1" as="geometry">
            <mxPoint x="380" y="75" as="sourcePoint" />
            <mxPoint x="520" y="75" as="targetPoint" />
          </mxGeometry>
        </mxCell>
        <mxCell id="_xPKb72QUxHpG5c-WjAv-22" value="" style="endArrow=classic;html=1;rounded=0;strokeColor=#23445D;exitX=0.5;exitY=1;exitDx=0;exitDy=0;entryX=0.5;entryY=0;entryDx=0;entryDy=0;" edge="1" parent="1" source="_xPKb72QUxHpG5c-WjAv-6" target="_xPKb72QUxHpG5c-WjAv-12">
          <mxGeometry width="50" height="50" relative="1" as="geometry">
            <mxPoint x="390" y="85" as="sourcePoint" />
            <mxPoint x="530" y="85" as="targetPoint" />
          </mxGeometry>
        </mxCell>
        <mxCell id="_xPKb72QUxHpG5c-WjAv-23" value="" style="endArrow=classic;html=1;rounded=0;strokeColor=#23445D;exitX=0;exitY=0.5;exitDx=0;exitDy=0;entryX=1;entryY=0.5;entryDx=0;entryDy=0;" edge="1" parent="1" source="_xPKb72QUxHpG5c-WjAv-4" target="_xPKb72QUxHpG5c-WjAv-8">
          <mxGeometry width="50" height="50" relative="1" as="geometry">
            <mxPoint x="400" y="95" as="sourcePoint" />
            <mxPoint x="540" y="95" as="targetPoint" />
          </mxGeometry>
        </mxCell>
        <mxCell id="_xPKb72QUxHpG5c-WjAv-24" value="" style="endArrow=classic;html=1;rounded=0;strokeColor=#23445D;exitX=0;exitY=0.5;exitDx=0;exitDy=0;entryX=1;entryY=0.5;entryDx=0;entryDy=0;" edge="1" parent="1" source="_xPKb72QUxHpG5c-WjAv-8" target="_xPKb72QUxHpG5c-WjAv-9">
          <mxGeometry width="50" height="50" relative="1" as="geometry">
            <mxPoint x="410" y="105" as="sourcePoint" />
            <mxPoint x="550" y="105" as="targetPoint" />
          </mxGeometry>
        </mxCell>
        <mxCell id="_xPKb72QUxHpG5c-WjAv-25" value="" style="endArrow=classic;html=1;rounded=0;strokeColor=#23445D;exitX=0.5;exitY=0;exitDx=0;exitDy=0;entryX=0.5;entryY=1;entryDx=0;entryDy=0;" edge="1" parent="1" source="_xPKb72QUxHpG5c-WjAv-13" target="_xPKb72QUxHpG5c-WjAv-9">
          <mxGeometry width="50" height="50" relative="1" as="geometry">
            <mxPoint x="560" y="115" as="sourcePoint" />
            <mxPoint x="420" y="115" as="targetPoint" />
          </mxGeometry>
        </mxCell>
        <mxCell id="_xPKb72QUxHpG5c-WjAv-26" value="" style="endArrow=classic;html=1;rounded=0;strokeColor=#23445D;exitX=0.5;exitY=1;exitDx=0;exitDy=0;entryX=0.5;entryY=0;entryDx=0;entryDy=0;edgeStyle=orthogonalEdgeStyle;curved=1;" edge="1" parent="1" source="_xPKb72QUxHpG5c-WjAv-9" target="_xPKb72QUxHpG5c-WjAv-14">
          <mxGeometry width="50" height="50" relative="1" as="geometry">
            <mxPoint x="430" y="125" as="sourcePoint" />
            <mxPoint x="570" y="125" as="targetPoint" />
          </mxGeometry>
        </mxCell>
        <mxCell id="_xPKb72QUxHpG5c-WjAv-27" value="" style="endArrow=classic;html=1;rounded=0;strokeColor=#23445D;exitX=1;exitY=0.5;exitDx=0;exitDy=0;entryX=0;entryY=0.5;entryDx=0;entryDy=0;edgeStyle=orthogonalEdgeStyle;curved=1;" edge="1" parent="1" source="_xPKb72QUxHpG5c-WjAv-14" target="_xPKb72QUxHpG5c-WjAv-10">
          <mxGeometry width="50" height="50" relative="1" as="geometry">
            <mxPoint x="420" y="405" as="sourcePoint" />
            <mxPoint x="420" y="225" as="targetPoint" />
          </mxGeometry>
        </mxCell>
        <mxCell id="_xPKb72QUxHpG5c-WjAv-28" value="" style="endArrow=classic;html=1;rounded=0;strokeColor=#23445D;exitX=1;exitY=0.5;exitDx=0;exitDy=0;entryX=0;entryY=0.5;entryDx=0;entryDy=0;edgeStyle=orthogonalEdgeStyle;curved=1;" edge="1" parent="1" source="_xPKb72QUxHpG5c-WjAv-10" target="_xPKb72QUxHpG5c-WjAv-15">
          <mxGeometry width="50" height="50" relative="1" as="geometry">
            <mxPoint x="430" y="415" as="sourcePoint" />
            <mxPoint x="430" y="235" as="targetPoint" />
          </mxGeometry>
        </mxCell>
        <mxCell id="_xPKb72QUxHpG5c-WjAv-29" value="" style="endArrow=classic;html=1;rounded=0;strokeColor=#23445D;exitX=0.5;exitY=1;exitDx=0;exitDy=0;entryX=1;entryY=0.5;entryDx=0;entryDy=0;edgeStyle=orthogonalEdgeStyle;curved=1;" edge="1" parent="1" source="_xPKb72QUxHpG5c-WjAv-14" target="_xPKb72QUxHpG5c-WjAv-13">
          <mxGeometry width="50" height="50" relative="1" as="geometry">
            <mxPoint x="440" y="425" as="sourcePoint" />
            <mxPoint x="440" y="245" as="targetPoint" />
          </mxGeometry>
        </mxCell>
        <mxCell id="_xPKb72QUxHpG5c-WjAv-30" value="" style="endArrow=classic;html=1;rounded=0;strokeColor=#23445D;exitX=0.5;exitY=1;exitDx=0;exitDy=0;entryX=0.5;entryY=0;entryDx=0;entryDy=0;" edge="1" parent="1" source="_xPKb72QUxHpG5c-WjAv-12" target="_xPKb72QUxHpG5c-WjAv-15">
          <mxGeometry width="50" height="50" relative="1" as="geometry">
            <mxPoint x="450" y="435" as="sourcePoint" />
            <mxPoint x="450" y="255" as="targetPoint" />
          </mxGeometry>
        </mxCell>
        <mxCell id="_xPKb72QUxHpG5c-WjAv-31" value="Submits&lt;br&gt;application&lt;div&gt;&lt;br&gt;&lt;/div&gt;" style="text;strokeColor=none;align=center;fillColor=none;html=1;verticalAlign=middle;whiteSpace=wrap;rounded=0;fontColor=#FFFFFF;" vertex="1" parent="1">
          <mxGeometry x="140" y="60" width="60" height="30" as="geometry" />
        </mxCell>
      </root>
    </mxGraphModel>
  </diagram>
</mxfile>
